# File created by Blade
# Date/Time:  Fri Jan 16 19:00:32 2015
#---------------------------------------------------------
:version 1.10
:name HOM
:units
  mass 1.0
  length 1.000000
  angle deg
:documentation
     Acclaim Skeleton File
:root
   axis xyz
   order TX TY TZ RX RY RZ
   position 0.000000 0.000000 0.000000
   orientation 0 0 0
:bonedata
   begin
      id 1
      name Spine_dum
      direction 0.000000 1.000000 0.000000
      length 7.067664
      axis 0.0 0.0 0.0 xyz
   end
   begin
      id 2
      name LeftUpLeg_dum
      direction 1.000000 0.000000 0.000000
      length 4.013002
      axis 0.0 0.0 0.0 xyz
   end
   begin
      id 3
      name RightUpLeg_dum
      direction -1.000000 0.000000 0.000000
      length 4.013002
      axis 0.0 0.0 0.0 xyz
   end
   begin
      id 4
      name Spine
      direction 0.000000 1.000000 0.000000
      length 0.000000
      axis 0.0 0.0 0.0 xyz
      dof rx ry rz
   end
   begin
      id 5
      name Spine_dum1
      direction 0.000000 1.000000 0.000000
      length 15.039886
      axis 0.0 0.0 0.0 xyz
   end
   begin
      id 6
      name Spine_dum2
      direction 0.000000 1.000000 0.000000
      length 10.530368
      axis 0.0 0.0 0.0 xyz
   end
   begin
      id 7
      name Spine_dum3
      direction 0.000000 1.000000 0.000000
      length 10.530368
      axis 0.0 0.0 0.0 xyz
   end
   begin
      id 8
      name Head
      direction 0.000000 1.000000 0.000000
      length 4.527550
      axis 0.0 0.0 0.0 xyz
      dof rx ry rz
   end
   begin
      id 9
      name LeftShoulder
      direction 1.000000 0.000000 0.000000
      length 7.028855
      axis 0.0 0.0 -90.0 xyz
      dof rx ry rz
   end
   begin
      id 10
      name LeftArm
      direction 1.000000 0.000000 0.000000
      length 10.797705
      axis 0.0 0.0 -90.0 xyz
      dof rx ry rz
   end
   begin
      id 11
      name LeftForeArm
      direction 1.000000 0.000000 0.000000
      length 7.907442
      axis 0.0 0.0 -90.0 xyz
      dof ry rz rx
   end
   begin
      id 12
      name LeftHand
      direction 0.000000 0.000000 0.000000
      length 0.000000
      axis 0.0 0.0 -90.0 xyz
      dof rx ry rz
   end
   begin
      id 13
      name LeftHand_dum1
      direction 0.000000 0.000000 0.000000
      length 0.000000
      axis 0.0 0.0 -90.0 xyz
   end
   begin
      id 14
      name LeftHand_dum2
      direction 1.000000 0.000000 0.000000
      length 3.937000
      axis 0.0 0.0 -90.0 xyz
   end
   begin
      id 15
      name LeftHandThumb1
      direction 0.000000 0.000000 1.000000
      length 3.937000
      axis 0.0 0.0 -90.0 xyz
      dof rx rz ry
   end
   begin
      id 16
      name RightShoulder
      direction -1.000000 0.000000 0.000000
      length 7.028855
      axis 0.0 0.0 90.0 xyz
      dof rx ry rz
   end
   begin
      id 17
      name RightArm
      direction -1.000000 0.000000 0.000000
      length 10.797705
      axis 0.0 0.0 90.0 xyz
      dof rx ry rz
   end
   begin
      id 18
      name RightForeArm
      direction -1.000000 0.000000 0.000000
      length 7.907442
      axis 0.0 0.0 90.0 xyz
      dof ry rz rx
   end
   begin
      id 19
      name RightHand
      direction 0.000000 0.000000 0.000000
      length 0.000000
      axis 0.0 0.0 90.0 xyz
      dof rx ry rz
   end
   begin
      id 20
      name RightHand_dum1
      direction 0.000000 0.000000 0.000000
      length 0.000000
      axis 0.0 0.0 90.0 xyz
   end
   begin
      id 21
      name RightHand_dum2
      direction -1.000000 0.000000 0.000000
      length 3.937000
      axis 0.0 0.0 90.0 xyz
   end
   begin
      id 22
      name RightHandThumb1
      direction 0.000000 0.000000 1.000000
      length 3.937000
      axis 0.0 0.0 90.0 xyz
      dof rx rz ry
   end
   begin
      id 23
      name LeftUpLeg
      direction 0.000000 -1.000000 0.000000
      length 16.899758
      axis 0.0 0.0 0.0 xyz
      dof rx ry rz
   end
   begin
      id 24
      name LeftLeg
      direction 0.000000 -1.000000 0.000000
      length 17.389183
      axis 0.0 0.0 0.0 xyz
      dof rx ry rz
   end
   begin
      id 25
      name LeftFoot
      direction 0.000000 -0.258819 0.965926
      length 4.924528
      axis 15.0 0.0 0.0 xyz
      dof rx ry rz
   end
   begin
      id 26
      name LeftToeBase
      direction 0.000000 0.000000 1.000000
      length 2.952750
      axis 0.0 0.0 0.0 xyz
      dof rx ry rz
   end
   begin
      id 27
      name RightUpLeg
      direction 0.000000 -1.000000 0.000000
      length 16.899758
      axis 0.0 0.0 0.0 xyz
      dof rx ry rz
   end
   begin
      id 28
      name RightLeg
      direction 0.000000 -1.000000 0.000000
      length 17.389183
      axis 0.0 0.0 0.0 xyz
      dof rx ry rz
   end
   begin
      id 29
      name RightFoot
      direction 0.000000 -0.258819 0.965926
      length 4.924528
      axis 15.0 0.0 0.0 xyz
      dof rx ry rz
   end
   begin
      id 30
      name RightToeBase
      direction 0.000000 0.000000 1.000000
      length 2.952750
      axis 0.0 0.0 0.0 xyz
      dof rx ry rz
   end
:hierarchy
   begin
      root Spine_dum LeftUpLeg_dum RightUpLeg_dum
      Spine_dum Spine
      LeftUpLeg_dum LeftUpLeg
      RightUpLeg_dum RightUpLeg
      Spine Spine_dum1 Spine_dum2 Spine_dum3
      Spine_dum1 Head
      Spine_dum2 LeftShoulder
      Spine_dum3 RightShoulder
      LeftShoulder LeftArm
      LeftArm LeftForeArm
      LeftForeArm LeftHand
      LeftHand LeftHand_dum1 LeftHand_dum2
      LeftHand_dum1 LeftHandThumb1
      RightShoulder RightArm
      RightArm RightForeArm
      RightForeArm RightHand
      RightHand RightHand_dum1 RightHand_dum2
      RightHand_dum1 RightHandThumb1
      LeftUpLeg LeftLeg
      LeftLeg LeftFoot
      LeftFoot LeftToeBase
      RightUpLeg RightLeg
      RightLeg RightFoot
      RightFoot RightToeBase
   end

# File created by Blade
# Date/Time:  Fri Jan 16 19:00:24 2015
# Frame Rate: 120.000 fps
#------------------------------------------------------
:FULLY-SPECIFIED
:DEGREES
520
root 17.295645 37.126572 -22.712237 -149.956697 13.473138 -153.304835
Spine -19.600156 14.402690 13.399969
Head -1.914927 3.631033 10.276623
LeftShoulder -10.567821 -18.455022 1.483449
LeftArm -20.776852 1.428780 -67.663942
LeftForeArm -2.371387 0.000000 7.738485
LeftHand -1.621215 0.000000 0.346459
LeftHandThumb1 -26.253704 0.000000 33.147579
RightShoulder -14.308886 -20.919988 12.513264
RightArm -5.470886 23.715648 63.883963
RightForeArm -15.182104 0.000000 17.077698
RightHand -8.214579 -0.000000 -2.425442
RightHandThumb1 -24.326973 -0.000000 -32.862282
LeftUpLeg -18.691088 24.945471 6.902743
LeftLeg -6.733204 -0.000000 0.000000
LeftFoot -21.148722 29.827087 -11.441451
LeftToeBase 21.162296 -0.000000 -0.000000
RightUpLeg -6.311161 -25.604950 -19.078269
RightLeg 109.372704 -0.000000 -0.000000
RightFoot 32.057364 -46.086017 -17.158684
RightToeBase 24.676917 -0.000000 -0.000000
521
root 17.319241 37.135710 -22.698075 -149.521863 13.663972 -153.150348
Spine -19.815594 14.645836 13.277808
Head -1.988454 3.650215 10.328021
LeftShoulder -10.551665 -18.386023 1.514908
LeftArm -20.797463 1.315004 -67.670710
LeftForeArm -2.379135 -0.000000 7.744043
LeftHand -1.679373 -0.000000 0.431981
LeftHandThumb1 -26.253704 0.000000 33.147579
RightShoulder -14.386713 -20.919022 12.533772
RightArm -5.212435 23.558162 63.933499
RightForeArm -15.862598 -0.000000 16.970524
RightHand -8.263248 -0.000000 -2.636596
RightHandThumb1 -24.326973 -0.000000 -32.862282
LeftUpLeg -19.009301 25.067745 6.894328
LeftLeg -6.786958 -0.000000 0.000000
LeftFoot -21.111487 29.975045 -11.412557
LeftToeBase 21.063674 -0.000000 -0.000000
RightUpLeg -5.839470 -25.295921 -19.023948
RightLeg 109.456048 -0.000000 -0.000000
RightFoot 32.193957 -46.095326 -17.166570
RightToeBase 24.819750 -0.000000 -0.000000
522
root 17.340868 37.144304 -22.679928 -149.053685 13.829674 -153.018935
Spine -20.062288 14.795804 13.169505
Head -2.061909 3.817382 10.357860
LeftShoulder -10.575399 -18.407077 1.579085
LeftArm -20.976433 1.278321 -67.705638
LeftForeArm -2.499760 -0.000000 7.816925
LeftHand -1.636513 -0.000000 0.556706
LeftHandThumb1 -26.253704 0.000000 33.147579
RightShoulder -14.372412 -20.855958 12.522159
RightArm -5.081438 23.428065 63.907125
RightForeArm -16.586931 -0.000000 16.987803
RightHand -8.598098 -0.000000 -2.729038
RightHandThumb1 -24.326973 -0.000000 -32.862282
LeftUpLeg -19.392815 25.142712 6.857103
LeftLeg -6.831330 -0.000000 0.000000
LeftFoot -21.102055 30.167103 -11.424258
LeftToeBase 21.028047 -0.000000 -0.000000
RightUpLeg -5.393007 -25.066632 -18.978338
RightLeg 109.530413 -0.000000 -0.000000
RightFoot 32.550047 -46.033363 -17.415638
RightToeBase 24.678787 -0.000000 -0.000000
523
root 17.360897 37.153600 -22.658779 -148.573874 14.020486 -152.879881
Spine -20.327862 14.990574 13.037002
Head -2.123974 3.883608 10.393122
LeftShoulder -10.574227 -18.432051 1.649179
LeftArm -21.125473 1.222723 -67.745899
LeftForeArm -2.521294 -0.000000 7.805648
LeftHand -1.707674 -0.000000 0.694765
LeftHandThumb1 -26.253704 0.000000 33.147579
RightShoulder -14.353612 -20.768328 12.499197
RightArm -4.981410 23.104086 63.897395
RightForeArm -17.538465 -0.000000 16.922271
RightHand -8.750766 -0.000000 -2.922943
RightHandThumb1 -24.326973 -0.000000 -32.862282
LeftUpLeg -19.790905 25.238616 6.812152
LeftLeg -6.865725 -0.000000 0.000000
LeftFoot -21.128332 30.356652 -11.505116
LeftToeBase 20.922528 -0.000000 -0.000000
RightUpLeg -4.989206 -24.832571 -18.924886
RightLeg 109.609106 -0.000000 -0.000000
RightFoot 32.519301 -46.204577 -17.178740
RightToeBase 24.807958 -0.000000 -0.000000
524
root 17.382539 37.164581 -22.640563 -148.111492 14.190773 -152.705080
Spine -20.534229 15.170581 12.967826
Head -2.264676 4.019420 10.436790
LeftShoulder -10.618527 -18.373058 1.684239
LeftArm -21.174674 1.195032 -67.795401
LeftForeArm -2.562086 0.000000 7.809692
LeftHand -1.715861 -0.000000 0.788582
LeftHandThumb1 -26.253704 0.000000 33.147579
RightShoulder -14.335087 -20.720769 12.518921
RightArm -4.831967 22.887819 63.842626
RightForeArm -18.600387 -0.000000 16.933936
RightHand -9.283625 -0.000000 -3.019937
RightHandThumb1 -24.326973 -0.000000 -32.862282
LeftUpLeg -20.164072 25.390055 6.800654
LeftLeg -6.897840 -0.000000 0.000000
LeftFoot -21.155498 30.496613 -11.565216
LeftToeBase 20.944567 -0.000000 -0.000000
RightUpLeg -4.547641 -24.594183 -18.854935
RightLeg 109.637187 -0.000000 -0.000000
RightFoot 32.744266 -46.188064 -17.244206
RightToeBase 25.106773 -0.000000 -0.000000
525
root 17.403726 37.177207 -22.620590 -147.650968 14.357788 -152.544073
Spine -20.752065 15.333948 12.884383
Head -2.382926 4.142805 10.474816
LeftShoulder -10.645135 -18.399008 1.726566
LeftArm -21.297097 1.134944 -67.813527
LeftForeArm -2.550558 -0.000000 7.768911
LeftHand -1.804123 -0.000000 0.890728
LeftHandThumb1 -26.253704 0.000000 33.147579
RightShoulder -14.263904 -20.555148 12.490868
RightArm -4.855169 22.757574 63.739753
RightForeArm -19.952190 -0.000000 16.812112
RightHand -9.699563 -0.000000 -2.834810
RightHandThumb1 -24.326973 -0.000000 -32.862282
LeftUpLeg -20.543917 25.570711 6.763436
LeftLeg -6.941905 -0.000000 0.000000
LeftFoot -21.150044 30.579807 -11.648918
LeftToeBase 20.906948 -0.000000 -0.000000
RightUpLeg -4.116046 -24.394445 -18.798402
RightLeg 109.656934 -0.000000 -0.000000
RightFoot 33.009514 -46.189411 -17.223930
RightToeBase 24.920415 -0.000000 -0.000000
526
root 17.424716 37.191073 -22.600501 -147.181737 14.547060 -152.367491
Spine -20.966964 15.521890 12.791374
Head -2.509443 4.265231 10.532829
LeftShoulder -10.676102 -18.404051 1.777802
LeftArm -21.379655 0.998692 -67.812359
LeftForeArm -2.554135 0.000000 7.665073
LeftHand -1.695142 -0.000000 0.825194
LeftHandThumb1 -26.253704 0.000000 33.147579
RightShoulder -14.248287 -20.602940 12.531679
RightArm -4.629718 22.434357 63.722161
RightForeArm -21.394859 0.000000 16.580432
RightHand -10.069540 -0.000000 -2.966293
RightHandThumb1 -24.326973 -0.000000 -32.862282
LeftUpLeg -20.916502 25.798690 6.710687
LeftLeg -7.020282 -0.000000 0.000000
LeftFoot -21.161665 30.672130 -11.808310
LeftToeBase 20.892225 -0.000000 -0.000000
RightUpLeg -3.704180 -24.182841 -18.740171
RightLeg 109.657362 -0.000000 -0.000000
RightFoot 33.176399 -46.146207 -17.176262
RightToeBase 25.128177 -0.000000 -0.000000
